<?xml version="1.0" encoding="UTF-8"?>
<!DOCTYPE svg PUBLIC "-//W3C//DTD SVG 1.1//EN" "http://www.w3.org/Graphics/SVG/1.1/DTD/svg11.dtd">
<!-- Creator: CorelDRAW 2020 (64 Bit) -->
<svg xmlns="http://www.w3.org/2000/svg" xml:space="preserve" width="10mm" height="10mm" version="1.1" style="shape-rendering:geometricPrecision; text-rendering:geometricPrecision; image-rendering:optimizeQuality; fill-rule:evenodd; clip-rule:evenodd"
viewBox="0 0 1000 1000"
 xmlns:xlink="http://www.w3.org/1999/xlink"
 xmlns:xodm="http://www.corel.com/coreldraw/odm/2003">
 <defs>
  <style type="text/css">
   <![CDATA[
    .fil0 {fill:#FEFEFE;fill-rule:nonzero}
   ]]>
  </style>
 </defs>
 <g id="Camada_x0020_1">
  <metadata id="CorelCorpID_0Corel-Layer"/>
  <path class="fil0" d="M758.24 627.12c-56.63,0 -107.32,25.83 -140.96,66.33l-218.82 -124.24c6.81,-19.15 10.55,-39.74 10.55,-61.19 0,-21.46 -3.74,-42.05 -10.55,-61.2l218.8 -124.26c33.64,40.51 84.34,66.35 140.98,66.35 101.01,0 183.2,-82.22 183.2,-183.28 0.01,-101.03 -82.18,-183.22 -183.2,-183.22 -101.03,0 -183.22,82.19 -183.22,183.22 0,21.45 3.73,42.05 10.54,61.2l-218.81 124.27c-33.63,-40.49 -84.33,-66.31 -140.94,-66.31 -101.05,0 -183.26,82.19 -183.26,183.22 0,101.03 82.21,183.22 183.26,183.22 56.61,0 107.3,-25.83 140.94,-66.31l218.81 124.24c-6.81,19.15 -10.55,39.75 -10.55,61.21 0,101.03 82.2,183.22 183.23,183.22 101.02,0 183.2,-82.19 183.2,-183.22 0.01,-101.04 -82.18,-183.25 -183.2,-183.25zm0 -540.6c65.67,0 119.09,53.43 119.09,119.11 0,65.71 -53.42,119.16 -119.09,119.16 -65.67,0 -119.11,-53.45 -119.11,-119.16 0,-65.68 53.44,-119.11 119.11,-119.11zm-532.43 540.6c-65.69,0 -119.14,-53.43 -119.14,-119.1 0,-65.68 53.45,-119.11 119.14,-119.11 65.67,0 119.09,53.43 119.09,119.11 0,65.67 -53.43,119.1 -119.09,119.1zm532.43 302.36c-65.67,0 -119.11,-53.43 -119.11,-119.1 0,-65.7 53.44,-119.15 119.11,-119.15 65.67,0 119.09,53.45 119.09,119.15 0,65.67 -53.42,119.1 -119.09,119.1z"/>
  <g id="_1537547509760">
  </g>
  <g id="_1537547508656">
  </g>
  <g id="_1537547509568">
  </g>
  <g id="_1537547509280">
  </g>
  <g id="_1537547510336">
  </g>
  <g id="_1537547510816">
  </g>
  <g id="_1537547506928">
  </g>
  <g id="_1537547506784">
  </g>
  <g id="_1537547505824">
  </g>
  <g id="_1537547507360">
  </g>
  <g id="_1537547503328">
  </g>
  <g id="_1537547502560">
  </g>
  <g id="_1537547504432">
  </g>
  <g id="_1537547502176">
  </g>
  <g id="_1537547502272">
  </g>
 </g>
</svg>
