<?xml version="1.0" encoding="UTF-8"?>
<!DOCTYPE svg PUBLIC "-//W3C//DTD SVG 1.1//EN" "http://www.w3.org/Graphics/SVG/1.1/DTD/svg11.dtd">
<!-- Creator: CorelDRAW 2020 (64 Bit) -->
<svg xmlns="http://www.w3.org/2000/svg" xml:space="preserve" width="10mm" height="10mm" version="1.1" style="shape-rendering:geometricPrecision; text-rendering:geometricPrecision; image-rendering:optimizeQuality; fill-rule:evenodd; clip-rule:evenodd"
viewBox="0 0 1000 1000"
 xmlns:xlink="http://www.w3.org/1999/xlink"
 xmlns:xodm="http://www.corel.com/coreldraw/odm/2003">
 <defs>
  <style type="text/css">
   <![CDATA[
    .fil0 {fill:#FEFEFE;fill-rule:nonzero}
   ]]>
  </style>
 </defs>
 <g id="Camada_x0020_1">
  <metadata id="CorelCorpID_0Corel-Layer"/>
  <path class="fil0" d="M938.48 462.03c-81.5,156.71 -299.51,369.85 -422.79,483.39 -13.27,11.97 -33.4,11.97 -46.67,0 -123.99,-113.54 -342,-326.68 -423.5,-483.39 -179.01,-344.78 272.34,-574.66 446.48,-229.87 174.14,-344.79 625.49,-114.91 446.48,229.87zm-446.16 433.32c128.65,-118.97 322.46,-309.38 399.43,-457.59 146.24,-281.47 -210.42,-463.7 -352.76,-181.86l-46.99 93.04 -46.99 -93.04c-142.34,-281.84 -499,-99.61 -352.76,181.86 76.97,148.18 271.18,338.96 400.07,457.59z"/>
 </g>
</svg>
